<?xml version="1.0" standalone="no"?><!DOCTYPE svg PUBLIC "-//W3C//DTD SVG 1.1//EN" "http://www.w3.org/Graphics/SVG/1.1/DTD/svg11.dtd"><svg t="1756396716692" class="icon" viewBox="0 0 1181 1024" version="1.1" xmlns="http://www.w3.org/2000/svg" p-id="6207" xmlns:xlink="http://www.w3.org/1999/xlink" width="230.6640625" height="200"><path d="M590.769231 21.110154c-326.262154 0-590.769231 264.467692-590.769231 590.769231 0 142.178462 50.254769 272.620308 133.907692 374.547692 12.918154-103.384615 116.184615-190.818462 260.962462-232.211692 52.893538 49.270154 121.186462 79.163077 195.899077 79.163077 72.940308 0 139.933538-28.356923 192.275692-75.618462 146.038154 45.056 247.059692 137.609846 250.368 245.129846A588.406154 588.406154 0 0 0 1181.538462 611.879385c0-326.301538-264.507077-590.769231-590.769231-590.769231z m0 742.321231c-37.730462 0-73.255385-10.358154-104.802462-28.317539-76.012308-43.244308-128.393846-131.780923-128.393846-234.023384 0-144.659692 104.605538-262.340923 233.196308-262.340924s233.196308 117.681231 233.196307 262.340924c0 103.817846-53.956923 193.417846-131.938461 235.95323-30.72 16.738462-64.945231 26.387692-101.257846 26.387693z" fill="#1296db" p-id="6208"></path></svg>